<svg width="117" height="63" viewBox="0 0 117 63" fill="none" xmlns="http://www.w3.org/2000/svg">
<path d="M16 62.572H1.174L1.174 59.275H16V62.572ZM10.183 60.052H7.348L7.348 52.639H10.183V60.052ZM4.009 60.052H1.174L1.174 52.303H4.009L4.009 60.052Z" fill="white"/>
<path d="M16.252 43.2723C16.252 44.3923 16.056 45.4283 15.664 46.3803C15.272 47.3183 14.726 48.1443 14.026 48.8583C13.326 49.5723 12.514 50.1253 11.59 50.5173C10.652 50.9093 9.644 51.1053 8.566 51.1053C7.474 51.1053 6.466 50.9093 5.542 50.5173C4.618 50.1253 3.813 49.5793 3.127 48.8793C2.427 48.1793 1.888 47.3603 1.51 46.4223C1.118 45.4703 0.921998 44.4343 0.921998 43.3143C0.921998 42.2083 1.118 41.1863 1.51 40.2483C1.888 39.2963 2.427 38.4703 3.127 37.7703C3.813 37.0563 4.625 36.5033 5.563 36.1113C6.487 35.7193 7.495 35.5233 8.587 35.5233C9.665 35.5233 10.673 35.7193 11.611 36.1113C12.535 36.5033 13.347 37.0493 14.047 37.7493C14.733 38.4493 15.272 39.2753 15.664 40.2273C16.056 41.1653 16.252 42.1803 16.252 43.2723ZM13.249 43.3143C13.249 42.4323 13.053 41.6623 12.661 41.0043C12.269 40.3323 11.723 39.8143 11.023 39.4503C10.309 39.0863 9.49 38.9043 8.566 38.9043C7.866 38.9043 7.236 39.0093 6.676 39.2193C6.102 39.4293 5.612 39.7303 5.206 40.1223C4.786 40.5143 4.471 40.9833 4.261 41.5293C4.037 42.0613 3.925 42.6563 3.925 43.3143C3.925 44.1963 4.121 44.9733 4.513 45.6453C4.891 46.3033 5.43 46.8143 6.13 47.1783C6.816 47.5423 7.628 47.7243 8.566 47.7243C9.266 47.7243 9.903 47.6193 10.477 47.4093C11.051 47.1993 11.548 46.9053 11.968 46.5273C12.374 46.1353 12.689 45.6663 12.913 45.1203C13.137 44.5743 13.249 43.9723 13.249 43.3143Z" fill="white"/>
<path d="M16.252 26.1483C16.252 27.2683 16.056 28.3043 15.664 29.2563C15.272 30.1943 14.726 31.0203 14.026 31.7343C13.326 32.4483 12.514 33.0013 11.59 33.3933C10.652 33.7853 9.644 33.9813 8.566 33.9813C7.474 33.9813 6.466 33.7853 5.542 33.3933C4.618 33.0013 3.813 32.4553 3.127 31.7553C2.427 31.0553 1.888 30.2363 1.51 29.2983C1.118 28.3463 0.921997 27.3103 0.921997 26.1903C0.921997 25.0843 1.118 24.0623 1.51 23.1243C1.888 22.1723 2.427 21.3463 3.127 20.6463C3.813 19.9323 4.625 19.3793 5.563 18.9873C6.487 18.5953 7.495 18.3993 8.587 18.3993C9.665 18.3993 10.673 18.5953 11.611 18.9873C12.535 19.3793 13.347 19.9253 14.047 20.6253C14.733 21.3253 15.272 22.1513 15.664 23.1033C16.056 24.0413 16.252 25.0563 16.252 26.1483ZM13.249 26.1903C13.249 25.3083 13.053 24.5383 12.661 23.8803C12.269 23.2083 11.723 22.6903 11.023 22.3263C10.309 21.9623 9.49 21.7803 8.566 21.7803C7.866 21.7803 7.236 21.8853 6.676 22.0953C6.102 22.3053 5.612 22.6063 5.206 22.9983C4.786 23.3903 4.471 23.8593 4.261 24.4053C4.037 24.9373 3.925 25.5323 3.925 26.1903C3.925 27.0723 4.121 27.8493 4.513 28.5213C4.891 29.1793 5.43 29.6903 6.13 30.0543C6.816 30.4183 7.628 30.6003 8.566 30.6003C9.266 30.6003 9.903 30.4953 10.477 30.2853C11.051 30.0753 11.548 29.7813 11.968 29.4033C12.374 29.0113 12.689 28.5423 12.913 27.9963C13.137 27.4503 13.249 26.8483 13.249 26.1903Z" fill="white"/>
<path d="M16 14.0804L13.102 14.0804V10.4054C13.102 9.50938 12.927 8.72537 12.577 8.05337C12.213 7.38138 11.688 6.86338 11.002 6.49938C10.316 6.13537 9.504 5.95337 8.566 5.95337C7.628 5.95337 6.823 6.14237 6.151 6.52038C5.479 6.88438 4.961 7.40238 4.597 8.07438C4.233 8.73238 4.051 9.50938 4.051 10.4054V14.1854H1.174L1.174 10.3634C1.174 9.24338 1.356 8.21438 1.72 7.27638C2.07 6.32438 2.581 5.49837 3.253 4.79837C3.911 4.08437 4.695 3.53837 5.605 3.16038C6.501 2.76837 7.495 2.57237 8.587 2.57237C9.665 2.57237 10.659 2.76837 11.569 3.16038C12.479 3.53837 13.263 4.07737 13.921 4.77737C14.579 5.47737 15.09 6.30337 15.454 7.25537C15.818 8.19337 16 9.21537 16 10.3214L16 14.0804ZM16 16.3064H1.174L1.174 13.0094H16V16.3064Z" fill="white"/>
<path d="M26.061 16V1.384H29.358V16H26.061ZM21.42 4.051V1.174H33.999V4.051H21.42Z" fill="white"/>
<path d="M38.3601 9.889V7.453H41.4891C42.1471 7.453 42.6511 7.285 43.0011 6.949C43.3651 6.613 43.5471 6.158 43.5471 5.584C43.5471 5.052 43.3721 4.611 43.0221 4.261C42.6721 3.911 42.1681 3.736 41.5101 3.736H38.3601V1.174H41.8881C42.8681 1.174 43.7291 1.363 44.4711 1.741C45.2131 2.105 45.7941 2.616 46.2141 3.274C46.6341 3.932 46.8441 4.688 46.8441 5.542C46.8441 6.41 46.6341 7.173 46.2141 7.831C45.7941 8.475 45.2061 8.979 44.4501 9.343C43.6941 9.707 42.8051 9.889 41.7831 9.889H38.3601ZM35.8401 16V1.174H39.1371V16H35.8401ZM43.9041 16L39.2841 9.616L42.3081 8.797L47.8101 16H43.9041Z" fill="white"/>
<path d="M47.6676 16L53.5476 1.174H56.5296L62.3466 16H58.8606L54.4086 3.694H55.6056L51.0906 16H47.6676ZM51.0066 13.312V10.624H59.0916V13.312H51.0066Z" fill="white"/>
<path d="M70.1505 16.231C69.0445 16.231 68.0155 16.042 67.0635 15.664C66.1255 15.272 65.2995 14.726 64.5855 14.026C63.8855 13.326 63.3395 12.514 62.9475 11.59C62.5555 10.652 62.3595 9.644 62.3595 8.566C62.3595 7.488 62.5555 6.487 62.9475 5.563C63.3395 4.625 63.8855 3.813 64.5855 3.127C65.2855 2.441 66.1045 1.909 67.0425 1.531C67.9945 1.139 69.0235 0.943001 70.1295 0.943001C71.3055 0.943001 72.3485 1.132 73.2585 1.51C74.1825 1.888 74.9875 2.406 75.6735 3.064L73.4685 5.29C73.0765 4.87 72.6005 4.541 72.0405 4.303C71.4945 4.065 70.8575 3.946 70.1295 3.946C69.4855 3.946 68.8905 4.058 68.3445 4.282C67.8125 4.492 67.3505 4.8 66.9585 5.206C66.5805 5.612 66.2795 6.102 66.0555 6.676C65.8455 7.25 65.7405 7.88 65.7405 8.566C65.7405 9.266 65.8455 9.903 66.0555 10.477C66.2795 11.051 66.5805 11.541 66.9585 11.947C67.3505 12.353 67.8125 12.668 68.3445 12.892C68.8905 13.116 69.4855 13.228 70.1295 13.228C70.8855 13.228 71.5435 13.109 72.1035 12.871C72.6635 12.633 73.1465 12.304 73.5525 11.884L75.7785 14.11C75.0645 14.768 74.2455 15.286 73.3215 15.664C72.4115 16.042 71.3545 16.231 70.1505 16.231Z" fill="white"/>
<path d="M86.561 16L80.555 8.272L86.372 1.174H90.446L83.894 8.881V7.537L90.656 16H86.561ZM77.594 16V1.174H80.891V16H77.594Z" fill="white"/>
<path d="M92.0315 16V1.174H95.3285V16H92.0315ZM94.5515 16V13.144H102.679V16H94.5515ZM94.5515 9.805V7.054H101.944V9.805H94.5515ZM94.5515 4.009V1.174H102.574V4.009H94.5515Z" fill="white"/>
<path d="M107.471 9.889V7.453H110.6C111.258 7.453 111.762 7.285 112.112 6.949C112.476 6.613 112.658 6.158 112.658 5.584C112.658 5.052 112.483 4.611 112.133 4.261C111.783 3.911 111.279 3.736 110.621 3.736H107.471V1.174H110.999C111.979 1.174 112.84 1.363 113.582 1.741C114.324 2.105 114.905 2.616 115.325 3.274C115.745 3.932 115.955 4.688 115.955 5.542C115.955 6.41 115.745 7.173 115.325 7.831C114.905 8.475 114.317 8.979 113.561 9.343C112.805 9.707 111.916 9.889 110.894 9.889H107.471ZM104.951 16V1.174H108.248V16H104.951ZM113.015 16L108.395 9.616L111.419 8.797L116.921 16H113.015Z" fill="white"/>
</svg>
